<svg xmlns="http://www.w3.org/2000/svg" viewBox="0 0 154.18 106.32"><defs><style>.cls-1,.cls-4,.cls-5{fill:#0b2545;}.cls-2{fill:#97d234;}.cls-3,.cls-4,.cls-5{isolation:isolate;}.cls-4,.cls-5{font-size:16.87px;font-family:Objectivity-Regular, Objectivity;}.cls-4{letter-spacing:-0.03em;}.cls-5{letter-spacing:0.05em;}</style></defs><title>Eszköz 1</title><g id="Réteg_2" data-name="Réteg 2"><g id="Réteg_1" data-name="Réteg 1"><path class="cls-1" d="M85.27,29.14A78.12,78.12,0,0,1,73.66,0L59.89,8.38A93.3,93.3,0,0,0,68.55,31H54.25c-.43-.63-.86-1.26-1.25-1.89A77.91,77.91,0,0,1,41.38,0L27.61,8.4A91.93,91.93,0,0,0,41.11,39,84,84,0,0,0,64,61.6L75.36,50.76a68.1,68.1,0,0,1-10.24-7.55H76.51A83.31,83.31,0,0,0,96.29,61.59l11.33-10.84A68.79,68.79,0,0,1,97.38,43.2h10.24V31H86.56Z"/><rect class="cls-2" x="95.67" width="12.21" height="12.21"/><g class="cls-3"><text class="cls-4" transform="translate(0 101.59)">W</text><text class="cls-5" transform="translate(17.65 101.59)">ASABI </text><text class="cls-4" transform="translate(79.98 101.59)">W</text><text class="cls-5" transform="translate(97.62 101.59)">ALLET</text></g><rect class="cls-2" x="75.9" y="99.23" width="2.42" height="2.42"/></g></g></svg>