<svg xmlns="http://www.w3.org/2000/svg" xmlns:xlink="http://www.w3.org/1999/xlink" id="Réteg_1" x="0" y="0" version="1.1" viewBox="0 0 300 300" xml:space="preserve" style="enable-background:new 0 0 300 300"><style type="text/css">.st0{fill:#002647}</style><path d="M209.17,0c0.18,9.44-0.69,18.75-4.22,27.61c-8.08,20.34-21.77,34.76-43.5,40.41c-2.89,0.75-5.97,0.74-8.95,1.14	c-2.79,0.38-3.9-0.64-3.98-3.6c-0.33-11.61,3.05-22.16,8.79-32.06c10.53-18.16,26.43-28.71,46.82-32.88	c0.54-0.11,1.04-0.41,1.56-0.62H209.17z" class="st0"/><path d="M262.39,101.54c-5.47,5.18-11,9.81-15.8,15.1c-13.63,15.03-17.73,32.92-14.9,52.67	c3.17,22.2,15.73,37.69,35.04,48.08c3.39,1.83,3.91,3.28,2.62,6.87c-8.01,22.25-20.18,41.98-35.88,59.52	c-14.15,15.8-29.71,18.77-49.4,10.77c-7.15-2.91-14.59-5.45-22.13-6.92c-10.64-2.08-20.9,0.62-30.96,4.41	c-7.23,2.72-14.58,5.72-22.14,6.91c-11.27,1.77-20.58-3.59-28.39-11.29c-15.21-15-26.73-32.6-35.64-51.91	c-10.26-22.25-16.43-45.57-17.02-70.15c-0.53-22.13,3.69-43.02,16.76-61.63c16.72-23.8,50.43-38.61,80.09-26.22	c5.24,2.2,10.67,3.92,15.95,6.02c7.03,2.79,13.87,2.68,21,0.02c9.88-3.69,19.72-8.21,29.99-9.96c28.29-4.82,52.24,3.51,70.25,26.64	C262.11,100.83,262.26,101.28,262.39,101.54" class="st0"/></svg>