<svg xmlns="http://www.w3.org/2000/svg" xmlns:xlink="http://www.w3.org/1999/xlink" viewBox="0 0 273 231"><defs><style>.cls-1{fill:#fff;}.cls-2{fill:url(#Névtelen_színátmenet_74);}.cls-3{fill:url(#Névtelen_színátmenet_73);}.cls-4{fill:url(#Névtelen_színátmenet_74-2);}.cls-5{fill:url(#Névtelen_színátmenet_73-2);}.cls-6{fill:url(#Névtelen_színátmenet_74-3);}.cls-7{fill:url(#Névtelen_színátmenet_73-3);}.cls-11,.cls-13,.cls-8{fill:#002647;}.cls-9{fill:url(#Névtelen_színátmenet_73-4);}.cls-10{fill:url(#Névtelen_színátmenet_74-4);}.cls-11,.cls-12,.cls-13{isolation:isolate;}.cls-11,.cls-13{font-size:12px;font-family:ArialMT, Arial;}.cls-13{letter-spacing:0.02em;}.cls-14{fill:url(#Névtelen_színátmenet_73-5);}.cls-15{fill:url(#Névtelen_színátmenet_74-5);}.cls-16{fill:url(#Névtelen_színátmenet_73-6);}.cls-17{fill:url(#Névtelen_színátmenet_74-6);}.cls-18{fill:url(#Névtelen_színátmenet_73-7);}.cls-19{fill:url(#Névtelen_színátmenet_74-7);}.cls-20{fill:url(#Névtelen_színátmenet_73-8);}.cls-21{fill:url(#Névtelen_színátmenet_74-8);}</style><linearGradient id="Névtelen_színátmenet_74" x1="3.56" y1="-2657.5" x2="236.26" y2="-2657.5" gradientTransform="matrix(1, 0, 0, -1, 0, -2572)" gradientUnits="userSpaceOnUse"><stop offset="0" stop-color="#d1d8d0" stop-opacity="0"/><stop offset="0.39" stop-color="#d0d8d0" stop-opacity="0.01"/><stop offset="0.53" stop-color="#cfd6d0" stop-opacity="0.04"/><stop offset="0.63" stop-color="#cbd4d0" stop-opacity="0.1"/><stop offset="0.71" stop-color="#c6d1d0" stop-opacity="0.18"/><stop offset="0.78" stop-color="#c0cdd0" stop-opacity="0.29"/><stop offset="0.84" stop-color="#b8c9d0" stop-opacity="0.42"/><stop offset="0.89" stop-color="#afc3d0" stop-opacity="0.57"/><stop offset="0.94" stop-color="#a4bcd0" stop-opacity="0.75"/><stop offset="0.99" stop-color="#98b5d0" stop-opacity="0.95"/><stop offset="1" stop-color="#95b3d0"/></linearGradient><linearGradient id="Névtelen_színátmenet_73" x1="107.5" y1="-2636.09" x2="107.5" y2="-2683.99" gradientTransform="matrix(1, 0, 0, -1, 0, -2572)" gradientUnits="userSpaceOnUse"><stop offset="0" stop-color="#d1d8d0" stop-opacity="0"/><stop offset="0.39" stop-color="#d1d8d0" stop-opacity="0.01"/><stop offset="0.52" stop-color="#d1d8d0" stop-opacity="0.04"/><stop offset="0.62" stop-color="#d1d8d0" stop-opacity="0.09"/><stop offset="0.7" stop-color="#d1d8d0" stop-opacity="0.17"/><stop offset="0.77" stop-color="#d1d8d0" stop-opacity="0.28"/><stop offset="0.83" stop-color="#d1d8d0" stop-opacity="0.4"/><stop offset="0.89" stop-color="#d1d8d0" stop-opacity="0.55"/><stop offset="0.94" stop-color="#d1d8d0" stop-opacity="0.73"/><stop offset="0.98" stop-color="#d1d8d0" stop-opacity="0.92"/><stop offset="1" stop-color="#d1d8d0"/></linearGradient><linearGradient id="Névtelen_színátmenet_74-2" x1="3.56" y1="-2717.5" x2="236.26" y2="-2717.5" xlink:href="#Névtelen_színátmenet_74"/><linearGradient id="Névtelen_színátmenet_73-2" x1="107.5" y1="-2696.09" x2="107.5" y2="-2743.99" xlink:href="#Névtelen_színátmenet_73"/><linearGradient id="Névtelen_színátmenet_74-3" x1="3.56" y1="-2777.5" x2="236.26" y2="-2777.5" xlink:href="#Névtelen_színátmenet_74"/><linearGradient id="Névtelen_színátmenet_73-3" x1="107.5" y1="-2756.09" x2="107.5" y2="-2803.99" xlink:href="#Névtelen_színátmenet_73"/><linearGradient id="Névtelen_színátmenet_73-4" x1="106.5" y1="-2576.09" x2="106.5" y2="-2623.99" xlink:href="#Névtelen_színátmenet_73"/><linearGradient id="Névtelen_színátmenet_74-4" x1="2.56" y1="-2597.5" x2="235.26" y2="-2597.5" xlink:href="#Névtelen_színátmenet_74"/><linearGradient id="Névtelen_színátmenet_73-5" x1="247.5" y1="-2576.09" x2="247.5" y2="-2623.99" xlink:href="#Névtelen_színátmenet_73"/><linearGradient id="Névtelen_színátmenet_74-5" x1="222.61" y1="-2597.5" x2="278.33" y2="-2597.5" xlink:href="#Névtelen_színátmenet_74"/><linearGradient id="Névtelen_színátmenet_73-6" x1="247.5" y1="-2637.09" x2="247.5" y2="-2684.99" xlink:href="#Névtelen_színátmenet_73"/><linearGradient id="Névtelen_színátmenet_74-6" x1="222.61" y1="-2658.5" x2="278.33" y2="-2658.5" xlink:href="#Névtelen_színátmenet_74"/><linearGradient id="Névtelen_színátmenet_73-7" x1="247.5" y1="-2696.09" x2="247.5" y2="-2743.99" xlink:href="#Névtelen_színátmenet_73"/><linearGradient id="Névtelen_színátmenet_74-7" x1="222.61" y1="-2717.5" x2="278.33" y2="-2717.5" xlink:href="#Névtelen_színátmenet_74"/><linearGradient id="Névtelen_színátmenet_73-8" x1="247.5" y1="-2755.09" x2="247.5" y2="-2802.99" xlink:href="#Névtelen_színátmenet_73"/><linearGradient id="Névtelen_színátmenet_74-8" x1="222.61" y1="-2776.5" x2="278.33" y2="-2776.5" xlink:href="#Névtelen_színátmenet_74"/></defs><title>Eszköz 2</title><g id="Réteg_2" data-name="Réteg 2"><g id="Réteg_1" data-name="Réteg 1"><rect class="cls-1" x="1" y="60" width="213" height="51" rx="7.59"/><rect class="cls-2" x="1" y="60" width="213" height="51" rx="7.59"/><rect class="cls-3" x="1" y="60" width="213" height="51" rx="7.59"/><rect class="cls-1" x="1" y="120" width="213" height="51" rx="7.59"/><rect class="cls-4" x="1" y="120" width="213" height="51" rx="7.59"/><rect class="cls-5" x="1" y="120" width="213" height="51" rx="7.59"/><rect class="cls-1" x="1" y="180" width="213" height="51" rx="7.59"/><rect class="cls-6" x="1" y="180" width="213" height="51" rx="7.59"/><rect class="cls-7" x="1" y="180" width="213" height="51" rx="7.59"/><rect class="cls-8" x="12.5" y="73.01" width="12.07" height="12.07"/><rect class="cls-8" x="25.42" y="73.01" width="12.07" height="12.07"/><rect class="cls-8" x="12.5" y="85.91" width="12.07" height="12.07"/><rect class="cls-8" x="25.42" y="85.91" width="12.07" height="12.07"/><path class="cls-8" d="M23.78,139.29c-.14.1-.28.22-.41.33a.84.84,0,0,1-.11-1,.23.23,0,0,1,.32-.12.2.2,0,0,1,.12.12A.92.92,0,0,1,23.78,139.29Z"/><path class="cls-8" d="M26.05,139.64l-.36-.25a1.41,1.41,0,0,1,0-.29v-.28a.88.88,0,0,1,0-.15.26.26,0,0,1,.26-.22c.13,0,.21.11.26.23A.8.8,0,0,1,26.05,139.64Z"/><path class="cls-8" d="M29.12,147.79A1.43,1.43,0,0,0,30.93,150a1.71,1.71,0,0,0,.26-.21l.16-.17a1,1,0,0,1,.39.69,2.79,2.79,0,0,0,.48,1.2.76.76,0,0,1-.52,1.29c-1.43.29-2.86.55-4.29.82h-.29a1.2,1.2,0,0,1-1.07-.7.87.87,0,0,1-.07-.42,1,1,0,0,1,.22-.55c1.28-2.12,2.23-3.65,2.37-3.88a.93.93,0,0,1,.55-.29m.65-.42-.71.17a1,1,0,0,0-.71.4L26,151.78A1.32,1.32,0,0,0,25.8,153h0a1.43,1.43,0,0,0,1.3.84h.34l.89-.17,3.4-.65a1.11,1.11,0,0,0,.87-.64,1.13,1.13,0,0,0-.19-1.06,2.52,2.52,0,0,1-.43-1.09,1.25,1.25,0,0,0-.48-.85l-.19-.15-.16.17h0l-.11.12a1.19,1.19,0,0,1-.84.35,1.12,1.12,0,0,1-1-.54,1.16,1.16,0,0,1,.13-1.45l.45-.58Z"/><path class="cls-8" d="M26.05,152.09a1.71,1.71,0,0,0,0,.84c-.42-.06-.84-.1-1.27-.12a5.92,5.92,0,0,0-1.62.22,1.29,1.29,0,0,0-.13-1.31.68.68,0,0,1,.24.08,4.11,4.11,0,0,0,1.54.38A4.3,4.3,0,0,0,26.05,152.09Z"/><path class="cls-8" d="M25,159a13.5,13.5,0,1,1,13.5-13.5A13.49,13.49,0,0,1,25,159Zm0-24.86A11.36,11.36,0,1,0,36.35,145.5,11.37,11.37,0,0,0,25,134.14Z"/><path class="cls-8" d="M31.36,148a.28.28,0,0,1,0-.22,5.48,5.48,0,0,0,0-1.28,6.16,6.16,0,0,0-1.85-3.83,4.15,4.15,0,0,1-1.27-3.49,3.75,3.75,0,0,0-.48-2.6A3.21,3.21,0,0,0,25,135.21h-.34a3.09,3.09,0,0,0-2.55,3.56s0,0,0,.08a5.38,5.38,0,0,1,0,2.46,4.63,4.63,0,0,1-1.11,1.9,6.17,6.17,0,0,0-1.15,1.92,6.87,6.87,0,0,0-.31,3.15c.39-.79,1-.68,1.34,0s.93,1.49,1.4,2.24a4.29,4.29,0,0,0,.71-.16,1.18,1.18,0,0,0,.35-.23c.22-.23.2-.48-.09-.61A7.6,7.6,0,0,1,21,147.69a.46.46,0,0,1-.15-.41,14.13,14.13,0,0,1,1.3-4.4,10.07,10.07,0,0,1,.89-1.52l.92.5a1.65,1.65,0,0,0,.89.23A2.6,2.6,0,0,0,26,141.6c.22-.13.52-.3.86-.52a12.38,12.38,0,0,1,2.2,4.94,9.37,9.37,0,0,1,.23,1.39.34.34,0,0,1-.17.34,1.44,1.44,0,0,0,2.07,2h0l.16-.17A1.35,1.35,0,0,0,31.36,148Zm-4.52-7.11-.1.08a6.15,6.15,0,0,1-.93.55,2.55,2.55,0,0,1-1,.39,2.13,2.13,0,0,1-1.11-.39c-.12-.07-.32-.18-.51-.31l-.12-.08c-.26-.19-.47-.42-.43-.63a.27.27,0,0,1,.1-.17s.23-.27.54-.57a1.14,1.14,0,0,1-.29-1.57l.05-.07a.57.57,0,0,1,.79-.15.54.54,0,0,1,.15.15,1.07,1.07,0,0,1,.22,1h0a1.24,1.24,0,0,1,1.11.11,1.41,1.41,0,0,1,.08-.86.69.69,0,0,1,.58-.43.67.67,0,0,1,.59.41,1.1,1.1,0,0,1-.36,1.45l.16.12c.37.26.65.46.64.72A.51.51,0,0,1,26.84,140.88Z"/><path class="cls-8" d="M20.17,147.77c.24,0,.49.2.69.55.43.77.93,1.49,1.4,2.24l.72,1.12a1.26,1.26,0,0,1,.31.89,1.43,1.43,0,0,1-.13.46,1.24,1.24,0,0,1-1.06.6,1.74,1.74,0,0,1-.39,0c-1.44-.29-2.89-.55-4.34-.82a.78.78,0,0,1-.51-1,.92.92,0,0,1,.18-.3,2.56,2.56,0,0,0,.46-1.16,1.11,1.11,0,0,1,.85-1,2,2,0,0,0,1.17-1c.19-.38.42-.55.65-.55m0-.26h0c-.25,0-.6.12-.88.69a1.68,1.68,0,0,1-1,.92,1.35,1.35,0,0,0-1,1.16,2.44,2.44,0,0,1-.41,1,1,1,0,0,0,.42,1.66h0l1.26.23,3.08.59a3.23,3.23,0,0,0,.44,0,1.43,1.43,0,0,0,1.27-.71h0a1.47,1.47,0,0,0-.19-1.63l-.38-.57-.34-.53-.43-.68c-.33-.5-.67-1-1-1.55a1.1,1.1,0,0,0-.91-.68Z"/><path class="cls-8" d="M25.05,192a13.5,13.5,0,1,0,13.49,13.51h0A13.51,13.51,0,0,0,25.05,192Zm4.59,3.74a1.81,1.81,0,0,1,0,3.62h0a1.81,1.81,0,1,1,0-3.62ZM15.86,207.31a1.81,1.81,0,1,1,1.81-1.81,1.81,1.81,0,0,1-1.81,1.81h0ZM20.7,212l-.1-.06a7.87,7.87,0,0,1-3.12-4.38.19.19,0,0,1,.06-.2,2.51,2.51,0,0,0,0-3.77.16.16,0,0,1-.06-.17A7.89,7.89,0,0,1,20.62,199l.09-.05L22,201.19l-.11.08a5.28,5.28,0,0,0,0,8.47c.08,0,.09.09,0,.17l-1.21,2Zm8.94,3.25a1.82,1.82,0,1,1,1.81-1.83v0a1.81,1.81,0,0,1-1.83,1.81h0Zm3.22-9.17a7.42,7.42,0,0,1-.28,1.55,7.9,7.9,0,0,1-2,3.37.15.15,0,0,1-.18,0,2.53,2.53,0,0,0-3.2,1.61,2.86,2.86,0,0,0-.07.28A.14.14,0,0,1,27,213a7.73,7.73,0,0,1-5.41-.52h-.07v-.1l1.15-2.06c0-.07.07-.09.15-.05a5.27,5.27,0,0,0,6.94-2.69,5.89,5.89,0,0,0,.34-1.08,4,4,0,0,1,.07-.48c0-.16,0-.1.11-.1h2.4c.11,0,.12.08.11.14ZM32.77,205H30.38c-.07,0-.1,0-.11-.09a5.23,5.23,0,0,0-4.09-4.58,5.12,5.12,0,0,0-3.25.32c-.09,0-.12,0-.17-.06l-1.12-2a.23.23,0,0,0-.08-.16l.88-.36a7.72,7.72,0,0,1,4.61-.18.13.13,0,0,1,.11.12,2.52,2.52,0,0,0,2.09,2,2.36,2.36,0,0,0,1.18-.1.15.15,0,0,1,.18,0,7.81,7.81,0,0,1,2.19,4.36,1.75,1.75,0,0,0,.06.56c.06.18-.06.17-.14.17Z"/><rect class="cls-1" width="213" height="51" rx="7.59"/><rect class="cls-9" width="213" height="51" rx="7.59"/><rect class="cls-10" width="213" height="51" rx="7.59"/><path class="cls-8" d="M31.17,10.17A7.17,7.17,0,0,1,30.74,13a6.4,6.4,0,0,1-4.46,4.14,6.86,6.86,0,0,1-.91.12c-.29,0-.4-.07-.41-.37a6.07,6.07,0,0,1,.9-3.29,6.82,6.82,0,0,1,4.79-3.36l.16-.07Z"/><path class="cls-8" d="M36.62,20.57c-.56.53-1.12,1-1.62,1.55a6.31,6.31,0,0,0-1.52,5.39,6.42,6.42,0,0,0,3.59,4.93c.34.19.4.34.26.7a18.28,18.28,0,0,1-3.67,6.1,4,4,0,0,1-5.06,1.1,12,12,0,0,0-2.27-.71,5.84,5.84,0,0,0-3.17.45,12,12,0,0,1-2.27.71A3.39,3.39,0,0,1,18,39.64a19.17,19.17,0,0,1-5.4-12.5,10.19,10.19,0,0,1,1.72-6.32,7,7,0,0,1,8.2-2.68c.54.22,1.1.4,1.64.61a2.77,2.77,0,0,0,2.15,0,18.35,18.35,0,0,1,3.07-1,7.06,7.06,0,0,1,7.19,2.73Z"/><text class="cls-11" transform="translate(53.33 28.9)">Download for Mac</text><g class="cls-12"><text class="cls-11" transform="translate(53.33 88.9)">Download for </text><text class="cls-13" transform="translate(129.55 88.9)">W</text><text class="cls-11" transform="translate(141.17 88.9)">indows</text></g><text class="cls-11" transform="translate(53.33 208.9)">Download for Ubuntu</text><text class="cls-11" transform="translate(53.33 148.9)">Download for Linux</text><rect class="cls-1" x="222" width="51" height="51" rx="7.59"/><rect class="cls-14" x="222" width="51" height="51" rx="7.59"/><rect class="cls-15" x="222" width="51" height="51" rx="7.59"/><rect class="cls-8" x="246.68" y="16.8" width="1.63" height="10.33"/><rect class="cls-8" x="238.91" y="32.57" width="17.18" height="1.63"/><polygon class="cls-8" points="247.5 29.97 243.56 26.03 241.5 26.03 247.5 32.03 253.5 26.03 251.43 26.03 247.5 29.97"/><rect class="cls-1" x="222" y="61" width="51" height="51" rx="7.59"/><rect class="cls-16" x="222" y="61" width="51" height="51" rx="7.59"/><rect class="cls-17" x="222" y="61" width="51" height="51" rx="7.59"/><rect class="cls-8" x="246.68" y="77.8" width="1.63" height="10.33"/><rect class="cls-8" x="238.91" y="93.57" width="17.18" height="1.63"/><polygon class="cls-8" points="247.5 90.97 243.56 87.03 241.5 87.03 247.5 93.03 253.5 87.03 251.43 87.03 247.5 90.97"/><rect class="cls-1" x="222" y="120" width="51" height="51" rx="7.59"/><rect class="cls-18" x="222" y="120" width="51" height="51" rx="7.59"/><rect class="cls-19" x="222" y="120" width="51" height="51" rx="7.59"/><rect class="cls-8" x="246.68" y="136.8" width="1.63" height="10.33"/><rect class="cls-8" x="238.91" y="152.57" width="17.18" height="1.63"/><polygon class="cls-8" points="247.5 149.97 243.56 146.03 241.5 146.03 247.5 152.03 253.5 146.03 251.43 146.03 247.5 149.97"/><rect class="cls-1" x="222" y="179" width="51" height="51" rx="7.59"/><rect class="cls-20" x="222" y="179" width="51" height="51" rx="7.59"/><rect class="cls-21" x="222" y="179" width="51" height="51" rx="7.59"/><rect class="cls-8" x="246.68" y="195.8" width="1.63" height="10.33"/><rect class="cls-8" x="238.91" y="211.57" width="17.18" height="1.63"/><polygon class="cls-8" points="247.5 208.97 243.56 205.03 241.5 205.03 247.5 211.03 253.5 205.03 251.43 205.03 247.5 208.97"/></g></g></svg>