<?xml version="1.0" encoding="utf-8"?>
<!-- Generator: Adobe Illustrator 23.0.1, SVG Export Plug-In . SVG Version: 6.00 Build 0)  -->
<svg version="1.1" id="Réteg_1" xmlns="http://www.w3.org/2000/svg" xmlns:xlink="http://www.w3.org/1999/xlink" x="0px" y="0px"
	 viewBox="0 0 300 300" style="enable-background:new 0 0 300 300;" xml:space="preserve">
<style type="text/css">
	.st0{fill:#D1D8D0;}
</style>
<path class="st0" d="M300,150.51C300,67.38,232.85,0,150.01,0S0,67.38,0,150.51c0,74.63,54.14,136.57,125.16,148.46V195.92H89.11
	v-41.99h36.05v-37.16c0,0,0.28-19.96,14.75-34.48c14.48-14.51,31.59-13.2,31.59-13.2h38.59v38.41h-26.32c0,0-6.57-0.12-10.96,4.29
	c-4.38,4.4-4.38,11.44-4.38,11.44v29.93h40.35l-5.27,42.25h-35.96V300C242.12,291.28,300,227.69,300,150.51"/>
</svg>
