<?xml version="1.0" encoding="utf-8"?>
<!-- Generator: Adobe Illustrator 23.0.1, SVG Export Plug-In . SVG Version: 6.00 Build 0)  -->
<svg version="1.1" id="Réteg_1" xmlns="http://www.w3.org/2000/svg" xmlns:xlink="http://www.w3.org/1999/xlink" x="0px" y="0px"
	 viewBox="0 0 300 300" style="enable-background:new 0 0 300 300;" xml:space="preserve">
<style type="text/css">
	.st0{fill:#D1D8D0;}
</style>
<path class="st0" d="M0,148.21c0.18-1.22,0.46-2.45,0.52-3.7c0.74-13.17,3.07-26.03,7.11-38.53C17.76,74.7,35.79,49.27,61.59,29.67
	c16.98-12.89,35.88-21.56,56.5-26.19c13.92-3.14,28.05-4.1,42.4-3.09c30.53,2.15,60.05,14.09,83.87,33.8
	c27.84,23.04,45.47,53.23,53.05,90.17c0.8,3.92,1.66,10.45,1.96,14.45c0.7,9.49,0.93,19.01,0.11,28.46
	c-2.58,29.35-12.45,55.88-29.8,79.36c-18.31,24.77-41.82,42.31-70.4,52.66c-1.61,0.57-3.22,0.79-4.89,0.7
	c-3.68-0.23-6.39-2.95-6.65-6.73c-0.07-1-0.04-2-0.03-3c0.04-13.12,0.08-26.25,0.14-39.37c0.02-5.18-0.43-10.31-1.9-15.29
	c-1.47-5.01-3.75-9.55-7.47-13.24c-0.13-0.14-0.23-0.31-0.49-0.63c1.13-0.16,2.11-0.33,3.09-0.46c7.6-1.02,15.11-2.55,22.38-5.1
	c7.92-2.78,15.24-6.67,21.61-12.31c7.93-7.04,13.22-15.83,16.54-25.96c2.36-7.21,3.7-14.62,4.14-22.2c0.25-4.3,0.42-8.62,0.29-12.92
	c-0.43-14.06-5.18-26.46-14.14-37.15c-0.29-0.33-0.58-0.68-0.86-1.03c-0.06-0.07-0.09-0.17-0.17-0.29
	c4.69-13.78,3.49-27.33-1.56-40.72c-2.78-0.74-5.44-0.46-8.09,0c-6.76,1.14-13,3.83-19.06,7.01c-4.53,2.37-8.86,5.06-13.07,8
	c-0.8,0.14-1.49,0.25-2.29,0.39c-12.94-3.62-26.13-5.12-39.53-4.82c-11.18,0.25-22.19,1.8-32.98,4.82
	c-0.79-0.13-1.47-0.24-2.26-0.37c-6.5-4.45-13.26-8.44-20.53-11.46c-4.67-1.93-9.46-3.47-14.52-3.87c-1.3-0.1-2.63,0.03-3.95,0.05
	c-0.89,0-1.35,0.42-1.66,1.32c-1.25,3.48-2.3,7.02-2.99,10.66c-1.62,8.54-1.55,17.02,0.72,25.43c0.18,0.63,0.38,1.25,0.57,1.86
	c0.18,0.56,0.37,1.12,0.57,1.73c-0.33,0.4-0.65,0.78-0.96,1.16c-8.07,9.62-12.79,20.73-14,33.37c-0.61,6.46-0.36,12.91,0.23,19.35
	c0.3,3.3,0.76,6.58,1.4,9.81c4.28,21.79,19.22,40.25,39.61,47.76c6.2,2.28,12.6,3.79,19.11,4.84c2.35,0.38,4.71,0.7,7.24,1.06
	c-1.04,1.26-2.06,2.36-2.94,3.58c-0.87,1.2-1.67,2.47-2.35,3.79c-0.71,1.36-1.33,2.79-1.85,4.24c-0.51,1.41-0.9,2.86-1.26,4.31
	c-0.37,1.5-0.62,3.03-0.94,4.6c-3.03,1.5-6.23,2.54-9.54,3.23c-5.53,1.13-11.05,1.17-16.49-0.61c-5.65-1.84-10.22-5.33-13.91-10.05
	c-1.25-1.6-2.36-3.32-3.45-5.03c-2.69-4.3-5.86-8.13-9.88-11.19c-4.1-3.12-8.65-5.01-13.85-4.82c-1.36,0.06-2.74,0.24-4.05,0.59
	c-2.5,0.69-3,2.36-1.46,4.53c1.19,1.69,2.72,3.07,4.48,4.03c4.27,2.35,7.29,5.96,9.99,9.94c3,4.46,5.6,9.14,7.58,14.19
	c3.27,8.32,9.37,13.48,17.54,16.25c5.39,1.82,10.96,2.31,16.6,2.23c4.89-0.06,9.73-0.62,14.55-1.48c0.32-0.07,0.66-0.07,1.09-0.11
	c0.03,0.5,0.09,0.94,0.09,1.38c0.07,8.81,0.14,17.63,0.2,26.44c0,0.65,0.01,1.32-0.09,1.94c-0.5,3.22-2.45,5.33-5.54,6.02
	c-1.9,0.42-3.77,0.31-5.62-0.34c-19.21-6.76-36.44-17.04-51.55-30.97c-21.99-20.29-36.93-45.07-44.77-74.33
	c-2.06-7.69-3.5-15.5-4.28-23.43c-0.31-3.28-0.55-6.58-0.84-9.87c-0.04-0.58-0.21-1.16-0.32-1.74V148.21z"/>
</svg>
