<?xml version="1.0" encoding="utf-8"?>
<!-- Generator: Adobe Illustrator 23.0.1, SVG Export Plug-In . SVG Version: 6.00 Build 0)  -->
<svg version="1.1" id="Réteg_1" xmlns="http://www.w3.org/2000/svg" xmlns:xlink="http://www.w3.org/1999/xlink" x="0px" y="0px"
	 viewBox="0 0 300 300" style="enable-background:new 0 0 300 300;" xml:space="preserve">
<style type="text/css">
	.st0{fill:#D1D8D0;}
</style>
<path class="st0" d="M300,153.12c-0.6,21.62-0.74,43.28-1.93,64.87c-1.26,22.92-8.84,43.38-26.29,59.33
	c-13.44,12.28-29.52,18.68-47.28,20.47c-14.04,1.4-28.22,1.91-42.34,2.04c-26.32,0.25-52.66,0.28-78.98-0.32
	c-12.81-0.29-25.89-0.86-38.34-3.63c-35.81-7.94-58.43-33.58-62.58-70.34c-1.65-14.6-2.01-29.4-2.15-44.11
	c-0.26-26.13-0.09-52.27,0.26-78.41c0.18-14.48,0.52-29.03,4.72-43.1c9.69-32.34,31.6-51.4,64.46-56.75
	c15.9-2.59,32.27-2.74,48.44-2.98c26.1-0.39,52.21-0.13,78.3,0.22c15.05,0.19,30.15,0.54,44.72,5.14
	c31.62,9.98,50.15,31.86,55.33,64.15c2.61,16.27,2.41,33.01,3.03,49.56c0.43,11.27,0.09,22.56,0.09,33.85L300,153.12z M26.68,149.99
	c0.17,0,0.35,0,0.52,0.01c0,12.09-0.24,24.18,0.08,36.26c0.3,12.08,0.66,24.18,1.89,36.18c2.65,25.76,19.33,43.8,44.77,47.61
	c12.9,1.93,26.09,2.33,39.17,2.54c24.37,0.38,48.74,0.3,73.12,0.03c11.94-0.14,23.92-0.58,35.79-1.88
	c26.2-2.87,43.66-19.12,47.65-45.11c1.97-12.9,2.35-26.13,2.5-39.21c0.31-26.94,0.18-53.89-0.19-80.82
	c-0.14-10.67-0.61-21.47-2.37-31.97c-3.59-21.32-15.66-36.05-36.86-42.06c-6.57-1.87-13.53-3.12-20.34-3.25
	c-33.56-0.61-67.12-0.92-100.69-0.95c-11.36,0-22.77,0.6-34.05,1.87C59.96,31.23,45.4,39,36.28,55c-5.6,9.81-7.73,20.67-8.09,31.82
	C27.51,107.87,27.17,128.93,26.68,149.99"/>
<path class="st0" d="M149.76,227.05c-41.92,0.19-76.66-34.15-76.96-76.11c-0.31-42.95,33.73-77.7,76.42-78.03
	c42.49-0.31,77.33,34.13,77.49,76.65C226.87,192.4,192.67,226.85,149.76,227.05 M199.51,150.23c-0.01-27.74-22.1-50.07-49.51-50.06
	c-27.52,0-50,22.13-50.01,49.23c-0.01,28.52,21.94,50.41,50.56,50.41C177.24,199.81,199.52,177.25,199.51,150.23"/>
<path class="st0" d="M229.57,88c-10.01,0-17.89-7.92-17.92-18.01c-0.01-10.02,7.93-18.03,17.91-18.05
	c10.14-0.03,18.21,8.08,18.12,18.21C247.6,80.15,239.63,88,229.57,88"/>
</svg>
