<svg xmlns="http://www.w3.org/2000/svg" xmlns:xlink="http://www.w3.org/1999/xlink" id="Réteg_1" x="0" y="0" version="1.1" viewBox="0 0 300 300" xml:space="preserve" style="enable-background:new 0 0 300 300"><style type="text/css">.st0{fill:#d1d8d0}</style><path d="M0,150.06C-0.26,67.43,67.11,0.04,149.85,0C232.55-0.05,300.44,67,300,150.78	c-0.43,82.12-66.42,148.24-148.12,149.21C66.67,301-0.27,231.93,0,150.06 M165.49,131.07c-0.06-0.64-0.14-1.05-0.14-1.45	c-0.01-3.32-0.11-6.64,0.04-9.96c0.09-1.84-0.52-2.34-2.3-2.32c-10.2,0.07-20.42,0.06-30.62-0.01c-1.78-0.02-2.16,0.55-2.15,2.25	c0.15,16.04,0.27,32.07,0.26,48.11c-0.01,17.49-0.15,34.96-0.27,52.45c-0.01,1.23,0.23,1.81,1.64,1.81	c10.46-0.05,20.92-0.06,31.38,0c1.67,0.01,2.05-0.58,2.05-2.19c-0.04-19.54-0.02-39.09,0.04-58.65c0.02-9.05,7.2-17.29,16.22-18.29	c8.05-0.9,14.28,1.51,17.5,9.69c1.39,3.53,2.1,7.54,2.15,11.34c0.22,18.61,0.15,37.21,0.11,55.83c-0.01,1.7,0.44,2.29,2.19,2.28	c10.28-0.06,20.55-0.06,30.81,0c1.7,0.01,2.09-0.57,2.09-2.18c-0.05-19.74,0.01-39.46-0.06-59.2c-0.02-7.96-1.22-15.74-4.36-23.11	c-3.81-8.94-9.98-15.67-19.04-19.47c-7.1-2.98-14.58-3.64-22.12-2.79c-8.01,0.9-15.03,4.12-20.59,10.13	C168.68,127.11,167.21,129.01,165.49,131.07 M76.52,169.47L76.52,169.47c0,16.79,0.02,33.57-0.04,50.36	c-0.01,1.65,0.44,2.13,2.1,2.12c9.45-0.07,18.9-0.04,28.36-0.04c4.57,0,4.56,0,4.57-4.53c0.01-32.63,0.01-65.26,0.06-97.89	c0-1.54-0.33-2.19-2.09-2.18c-10.32,0.1-20.66,0.1-30.99,0.04c-1.54-0.01-2.02,0.33-2.02,1.94	C76.55,136.02,76.52,152.75,76.52,169.47 M94.12,103.62c1.86-0.26,3.75-0.34,5.56-0.79c14.4-3.48,17.71-18.88,10.37-28.68	c-4.5-6-11.12-7.53-18.29-6.89c-16.61,1.48-21.14,17.97-14.31,28.2C81.38,101.32,87.25,103.52,94.12,103.62" class="st0"/></svg>