<?xml version="1.0" encoding="utf-8"?>
<!-- Generator: Adobe Illustrator 23.0.1, SVG Export Plug-In . SVG Version: 6.00 Build 0)  -->
<svg version="1.1" id="Réteg_1" xmlns="http://www.w3.org/2000/svg" xmlns:xlink="http://www.w3.org/1999/xlink" x="0px" y="0px"
	 viewBox="0 0 300 300" style="enable-background:new 0 0 300 300;" xml:space="preserve">
<style type="text/css">
	.st0{fill:#002647;}
	.st1{fill:#010101;}
</style>
<path class="st0" d="M195.82,175.45c-4.72,6.14-5.78,12.67-1.63,19.44c2.96,4.82,8.09,7.32,13.29,7.32c4.1,0,8.24-1.56,11.39-4.77
	c0.61-0.61,1.2-1.26,1.8-1.89c2.46,1.97,3.88,4.52,4.31,7.64c0.69,4.87,2.46,9.3,5.29,13.37c4.53,6.5,2.04,12.81-5.73,14.36
	c-15.88,3.13-31.79,6.11-47.69,9.12c-1.12,0.21-2.2,0.32-3.21,0.32c-5.27,0-9.17-2.79-11.94-7.83c-0.36-0.96-0.82-2.6-0.69-4.66
	c0.21-3.1,1.68-5.26,2.34-6.12c14.3-23.49,24.81-40.5,26.42-43.07C190.16,178.07,191.15,176.55,195.82,175.45 M203.04,170.79
	l-7.89,1.86c-5.18,1.21-6.9,3.04-7.82,4.51c-1.58,2.49-12.07,19.48-26.38,42.97c-1.19,1.59-2.6,4.14-2.83,7.57
	c-0.13,1.99,0.16,3.97,0.87,5.86l0.08,0.2l0.1,0.19c3.4,6.18,8.27,9.31,14.47,9.31c1.2,0,2.46-0.12,3.74-0.37
	c3.31-0.62,6.61-1.26,9.91-1.88c12.4-2.34,25.21-4.76,37.8-7.24c4.73-0.93,8.13-3.44,9.59-7.04c1.47-3.62,0.73-7.81-2.04-11.79
	c-2.6-3.73-4.17-7.71-4.8-12.13c-0.54-3.89-2.36-7.09-5.38-9.49l-2.07-1.66l-1.82,1.93l-0.56,0.59c-0.4,0.42-0.8,0.84-1.2,1.27
	c-2.47,2.51-5.78,3.89-9.33,3.89c-4.5,0-8.54-2.22-10.82-5.93c-3.32-5.43-2.87-10.57,1.44-16.18L203.04,170.79z"/>
<path class="st0" d="M161.5,223.21c-0.68,3.12-0.73,6.24,0.19,9.33c-4.7-0.53-9.37-1.27-14.1-1.34c-6.14-0.11-12.1,0.97-18.01,2.49
	c2.62-5.18,1.51-9.99-1.47-14.6c1.06-0.12,1.82,0.58,2.69,0.97c5.46,2.42,11.11,3.99,17.11,4.14
	C152.51,224.8,157,223.98,161.5,223.21"/>
<path class="st1" d="M127.67,218.64c0.29,0.04,0.61,0.07,0.5,0.51C128,218.99,127.83,218.81,127.67,218.64"/>
<path class="st0" d="M136.46,81.04c-1.52,1.09-3.04,2.36-4.47,3.64c-2.98-2.84-3.61-8.24-1.28-11.5c1.5-2.1,3.51-2.09,4.86,0.18
	C136.99,75.77,137.22,78.38,136.46,81.04"/>
<path class="st0" d="M161.62,84.85c-1.42-0.99-2.78-1.9-4.06-2.72c-0.27-0.68-0.32-1.73-0.4-3.2c-0.01-0.14-0.03-0.79,0.01-1.56
	c0.01-0.27,0.03-0.52,0.06-0.78c0.03-0.24,0.13-0.52,0.13-0.77c0.12-0.6,0.31-1.17,0.58-1.72c0.61-1.26,1.4-2.44,2.93-2.41
	c1.51,0.04,2.29,1.19,2.88,2.49C165.48,78.07,164.61,82.48,161.62,84.85"/>
<path class="st0" d="M150,300C67.29,300,0,232.71,0,150C0,67.3,67.29,0,150,0c82.71,0,150,67.3,150,150
	C300,232.71,232.71,300,150,300 M150,23.8C80.41,23.8,23.8,80.42,23.8,150c0,69.59,56.61,126.21,126.2,126.21
	c69.59,0,126.2-56.62,126.2-126.21C276.2,80.42,219.59,23.8,150,23.8"/>
<path class="st0" d="M220.77,177.67c-0.5-0.82-0.42-1.6-0.29-2.49c0.68-4.73,0.73-9.52,0.14-14.22
	c-2.06-16.44-8.47-30.84-20.53-42.53c-10.93-10.6-15.58-23.7-14.2-38.7c0.91-9.81,0.67-20.58-5.33-28.89
	c-7.1-9.84-18.6-16.01-30.8-15.16c-1.27,0.1-2.52,0.24-3.77,0.46c-19.08,3.21-31.92,21.36-28.32,40.4
	c1.72,9.16,2.66,18.19,0.08,27.34c-2.3,8.14-6.73,14.94-12.32,21.13c-5.63,6.27-9.84,13.41-12.78,21.31
	c-4.24,11.38-4.71,23.11-3.44,35c4.29-8.76,10.64-7.52,14.82-0.02c4.77,8.56,10.39,16.63,15.63,24.93c2.57-0.8,5.36-0.6,7.83-1.82
	c1.4-0.68,2.78-1.38,3.89-2.51c2.49-2.54,2.26-5.29-0.99-6.8c-10.1-4.7-17.73-12.37-25.21-20.28c-1.3-1.38-1.89-2.7-1.66-4.64
	c2.02-17.09,7.11-33.26,14.37-48.79c2.78-5.94,6.02-11.62,9.91-16.9c3.43,1.83,6.87,3.66,10.29,5.49c2.03,1.18,5.53,2.8,9.84,2.62
	c2.14-0.09,4.62-0.63,13.23-5.5c2.47-1.4,5.76-3.33,9.6-5.79c12.78,16.19,19.58,35.12,24.39,54.94c1.23,5.06,2.08,10.19,2.51,15.39
	c0.16,1.84-0.38,2.96-1.86,3.81c-4.72,6.13-5.78,12.66-1.62,19.44c5.26,8.61,17.56,9.81,24.67,2.56c0.61-0.62,1.2-1.26,1.8-1.89
	C224.02,189.61,224.45,183.64,220.77,177.67 M170.5,98.62c-0.32,0.32-0.69,0.66-1.1,0.98c-2.2,1.76-5.7,3.6-10.38,6.06
	c-5.41,2.84-8.18,4.27-11.54,4.32c-4.2,0.09-7.09-1.5-12.26-4.32c-1.39-0.77-3.59-1.96-5.7-3.4c-0.46-0.3-0.89-0.61-1.32-0.93
	c-2.88-2.12-5.27-4.62-4.82-6.96c0.16-0.88,0.68-1.53,1.11-1.96c0,0,2.53-3.01,5.97-6.3c-5.52-2.67-7.43-12.37-2.63-18.18
	c3.02-3.67,7.49-3.71,10.49-0.04c2.57,3.16,3.31,6.77,2.39,10.68c0.12-0.06,0.24-0.1,0.36-0.14c4.06-1.6,7.86-0.96,12.31,1.29
	c-0.43-3.29-0.61-6.57,0.97-9.64c1.36-2.64,3.31-4.67,6.43-4.7c3.14-0.04,5.14,1.93,6.51,4.58c2.98,5.74,1.3,12.49-3.96,16.1
	c0.59,0.41,1.18,0.83,1.79,1.28c4.06,2.91,7.13,5.1,7.02,8.03C172.07,96.52,171.53,97.58,170.5,98.62"/>
<path class="st0" d="M96.37,175.21c2.74,0,5.5,2.2,7.67,6.09c4.77,8.56,10.39,16.63,15.63,24.92c2.67,4.13,5.33,8.28,8,12.41
	c0.83,1,3.71,4.72,3.37,9.88c-0.14,2.23-0.86,4.01-1.44,5.17c-3.06,4.6-6.94,6.61-11.79,6.61c-1.36,0-2.79-0.17-4.3-0.47
	c-16.02-3.24-32.12-6.13-48.2-9.16c-6.46-3.31-7.82-8.37-3.7-14.26c2.73-3.9,4.46-8.16,5.13-12.83c0.83-5.61,4.04-9.06,9.41-10.61
	c6.22-1.8,10.11-6.19,13.07-11.64C91.28,177.11,93.82,175.21,96.37,175.21 M96.37,172.32L96.37,172.32c-2.71,0-6.6,1.33-9.72,7.68
	c-3.08,5.68-6.57,8.82-11.3,10.2c-6.53,1.89-10.49,6.37-11.46,12.96c-0.62,4.23-2.14,8.03-4.64,11.6c-2.52,3.6-3.39,7.08-2.59,10.34
	c0.82,3.32,3.29,6.06,7.33,8.13l0.37,0.2l0.41,0.07c4.64,0.88,9.28,1.74,13.91,2.6c11.24,2.09,22.87,4.24,34.24,6.54
	c1.71,0.34,3.36,0.52,4.88,0.52c5.93,0,10.71-2.66,14.19-7.89l0.09-0.13l0.08-0.14c1.02-2,1.61-4.12,1.76-6.3
	c0.38-5.73-2.51-10.04-3.91-11.77l-4.11-6.38l-3.8-5.9c-1.59-2.5-3.24-5.04-4.84-7.5c-3.64-5.6-7.42-11.39-10.69-17.26
	C103.83,175.01,100.21,172.32,96.37,172.32"/>
</svg>
