<svg xmlns="http://www.w3.org/2000/svg" xmlns:xlink="http://www.w3.org/1999/xlink" id="Réteg_1" x="0" y="0" version="1.1" viewBox="0 0 300 300" xml:space="preserve" style="enable-background:new 0 0 300 300"><style type="text/css">.st0{fill:#d1d8d0}</style><path d="M150.22,300c-40.04-0.54-74.83-14-103.61-41.52c-31.37-30-47.11-67.17-46.6-110.54	C0.99,65.31,69.05-2.67,155.47,0.08c38.22,1.21,71.55,15.55,98.94,42.35c31.83,31.1,47.12,69.37,45.46,113.72	c-1.48,39.97-17.18,74.34-46.08,102C224.94,285.8,190.05,299.52,150.22,300 M162.45,85.28c4.1-12.76,8.12-25.3,12.17-37.93	c3.95,0.81,7.66,1.55,11.36,2.34c6.38,1.35,12.72,2.85,19.11,4.07c2.5,0.48,4.52,1.06,4.66,4.06c0.02,0.4,0.28,0.79,0.42,1.19	c2.93,8.02,10.98,13.37,19.38,13.13c9.18-0.27,16.74-6.35,18.91-14.89c3.45-13.67-7.44-24.38-20.35-23.98	c-5.98,0.18-10.54,3.04-14.31,7.42c-0.65,0.75-1.22,1.13-2.3,0.89c-13.15-2.83-26.3-5.59-39.45-8.41c-3.69-0.8-6.87,0.99-7.99,4.63	c-1.14,3.68-2.31,7.35-3.47,11.03c-3.43,10.92-6.9,21.84-10.28,32.78c-0.52,1.68-1.2,2.42-3.21,2.54	c-6.31,0.35-12.65,0.79-18.89,1.76c-9.67,1.5-19.15,4-28.03,8.2c-6.09,2.88-11.99,6.15-17.82,9.53c-1.67,0.97-2.67,1.36-4.44,0.28	c-5.96-3.66-12.22-6.59-19.51-6.09c-16.07,1.12-26.5,14.8-23.99,30.31c1.34,8.27,6.29,14.2,13.06,18.73	c0.99,0.66,1.22,1.28,1.03,2.36c-2.58,14.6,0.27,28.19,7.81,40.82c4.71,7.9,10.96,14.54,18.16,20.21	c11.68,9.17,24.82,15.49,39.14,19.33c9.81,2.63,19.78,4.37,29.93,4.85c18.95,0.89,37.41-1.53,55.22-8.34	c11.08-4.24,21.32-9.86,30.39-17.54c9.49-8.06,16.99-17.53,21.4-29.31c3.72-9.91,4.38-20.06,2.76-30.44	c-0.08-0.55,0.27-1.37,0.69-1.75c1.86-1.62,3.96-2.97,5.7-4.7c5-4.94,8.12-10.9,7.94-18.02c-0.29-11.65-5.69-20.21-16.66-24.58	c-9.61-3.82-18.7-2.38-26.81,4.15c-1.12,0.9-1.8,0.88-2.98,0.19c-4.51-2.65-8.99-5.42-13.71-7.67	c-12.25-5.82-25.22-9.19-38.72-10.56C166.8,85.67,164.78,85.49,162.45,85.28" class="st0"/><path d="M151.27,206.87c-12.9,0.15-24.49-3.04-35.08-9.7c-2.24-1.42-4.69-2.79-5.58-5.66	c-0.95-3.02-0.48-4.47,2.26-6.48c2.23-1.63,4.66-1.59,6.88-0.11c12.45,8.34,25.99,11.74,40.92,8.95c7.97-1.49,15.2-4.54,21.78-9.26	c2-1.43,4.78-0.99,7.33,1.03c1.95,1.55,2.53,3.36,1.37,5.78c-0.7,1.47-1.74,2.94-2.97,3.98c-4.88,4.1-10.58,6.63-16.64,8.5	C164.81,205.97,157.92,206.95,151.27,206.87" class="st0"/><path d="M99.11,146.09c0.02-8.55,7.2-15.58,15.91-15.61c8.58-0.02,15.89,7.44,15.86,16.17	c-0.04,7.96-7.68,15.61-15.58,15.58C106.24,162.21,99.09,155.07,99.11,146.09" class="st0"/><path d="M171.12,146.19c-0.36-7.96,7.06-15.9,15.92-15.75c8.53,0.14,15.65,7.23,15.68,15.91	c0.04,8.52-7.24,15.85-15.74,15.88C178.18,162.25,171.14,155.13,171.12,146.19" class="st0"/></svg>