<svg xmlns="http://www.w3.org/2000/svg" xmlns:xlink="http://www.w3.org/1999/xlink" id="Réteg_1" x="0" y="0" version="1.1" viewBox="0 0 300 300" xml:space="preserve" style="enable-background:new 0 0 300 300"><style type="text/css">.st0{fill:#d1d8d0}</style><path d="M139.05,126.59v33.64c-4.72,0.41-9.22,0.38-13.53,1.25c-12.85,2.61-21.01,14.89-19.54,28.89	c1.27,12.18,11.39,20.8,24.47,20.83c15.4,0.03,25.59-9.79,25.9-25.75c0.44-22.21,0.49-44.43,0.59-66.66	c0.09-18.07,0.02-36.12,0.02-54.19v-5.32h30.47c1.92,27.37,16.96,42.1,43.1,46.68v30.38c-15.55-1.05-29.75-5.42-43.2-15.44	c0,2.81,0.02,4.46,0,6.11c-0.28,20.46-0.43,40.92-0.89,61.37c-0.48,22.01-9.52,39.75-29.43,49.56c-20.43,10.05-41.1,7.81-59.77-5.43	c-19.88-14.12-26.8-34.08-22.43-57.62c4.4-23.74,17.6-40.56,41.8-46.53C123.68,126.63,131.3,127.13,139.05,126.59" class="st0"/><path d="M300,153.12c-0.6,21.63-0.75,43.28-1.94,64.87c-1.25,22.93-8.84,43.37-26.28,59.34	c-13.44,12.28-29.51,18.67-47.27,20.46c-14.04,1.41-28.22,1.92-42.33,2.05c-26.33,0.25-52.67,0.28-78.99-0.32	c-12.81-0.3-25.89-0.87-38.34-3.63c-35.8-7.93-58.42-33.58-62.57-70.34c-1.65-14.59-2-29.39-2.15-44.1	c-0.26-26.13-0.08-52.28,0.26-78.4c0.18-14.48,0.51-29.04,4.73-43.1c9.67-32.33,31.59-51.4,64.45-56.75	c15.91-2.58,32.28-2.73,48.44-2.98c26.1-0.39,52.21-0.13,78.3,0.22c15.05,0.2,30.15,0.55,44.71,5.15	c31.63,9.98,50.16,31.85,55.34,64.15c2.6,16.26,2.41,33,3.04,49.54c0.42,11.27,0.08,22.58,0.08,33.85	C299.65,153.11,299.82,153.11,300,153.12 M26.68,149.99c0.17,0,0.35,0,0.52,0c0,12.09-0.24,24.19,0.07,36.27	c0.31,12.08,0.66,24.18,1.89,36.18c2.66,25.76,19.34,43.8,44.77,47.61c12.9,1.94,26.09,2.33,39.17,2.54	c24.37,0.38,48.75,0.3,73.12,0.02c11.94-0.14,23.93-0.57,35.79-1.87c26.19-2.88,43.66-19.13,47.65-45.11	c1.98-12.9,2.35-26.13,2.51-39.21c0.31-26.94,0.18-53.88-0.19-80.82c-0.15-10.67-0.61-21.47-2.39-31.97	c-3.58-21.33-15.65-36.05-36.85-42.07c-6.57-1.86-13.53-3.12-20.34-3.24c-33.56-0.6-67.12-0.92-100.69-0.94	c-11.36-0.01-22.77,0.6-34.05,1.87C59.96,31.23,45.39,39,36.28,55c-5.59,9.81-7.73,20.69-8.08,31.82	C27.51,107.87,27.17,128.93,26.68,149.99" class="st0"/></svg>