<svg xmlns="http://www.w3.org/2000/svg" xmlns:xlink="http://www.w3.org/1999/xlink" id="Réteg_1" x="0" y="0" version="1.1" viewBox="0 0 300 300" xml:space="preserve" style="enable-background:new 0 0 300 300"><style type="text/css">.st0{fill:#002647}</style><path d="M150.07,0C67.23-0.04,0.03,67.1,0,149.96c-0.03,82.84,67.08,150,149.98,150.04	c82.79,0.06,150.03-67.18,150.02-150C299.99,67.21,232.86,0.04,150.07,0 M201.03,41.51c11.11,0,20.09,8.97,20.11,20.1	c0.02,11.1-8.96,20.13-20.05,20.16c-11.11,0.03-20.22-9.06-20.21-20.17C180.89,50.54,189.96,41.5,201.03,41.51 M47.91,170.16	c-11.13,0-20.18-9.1-20.15-20.23c0.03-11.08,9.09-20.06,20.21-20.04c11.1,0.02,20.08,9.04,20.07,20.16	C68.03,161.13,59.01,170.16,47.91,170.16 M101.71,222.48c-0.4-0.24-0.77-0.44-1.1-0.68c-17.29-12.14-28.89-28.33-34.69-48.66	c-0.28-0.96-0.14-1.52,0.62-2.21c12.57-11.2,12.56-30.64-0.02-41.88c-0.66-0.59-0.92-1.07-0.66-1.99	c5.8-20.46,17.45-36.74,34.87-48.93c0.28-0.19,0.59-0.36,1.02-0.61c4.93,8.26,9.79,16.38,14.69,24.6c-0.44,0.33-0.8,0.61-1.17,0.89	c-13.69,10.42-21.87,24.14-23.37,41.27c-1.91,21.78,6.19,39.41,23.51,52.79c0.82,0.63,0.94,1.03,0.4,1.94	c-4.5,7.44-8.95,14.92-13.4,22.38C102.21,221.72,101.99,222.04,101.71,222.48 M201.03,258.52c-11.06-0.01-20.13-9.06-20.15-20.11	c-0.02-11.11,9.05-20.17,20.21-20.16c11.1,0.02,20.08,9.04,20.06,20.16C221.12,249.52,212.12,258.53,201.03,258.52 M236.87,156.68	c-0.43,5.83-1.44,11.57-3.07,17.19c-4.12,14.34-11.46,26.79-21.9,37.43c-0.63,0.66-1.16,0.79-2.03,0.5	c-16.16-5.26-32.81,4.4-36.31,21.03c-0.16,0.76-0.41,1.21-1.26,1.42c-20.74,5.27-40.78,3.39-60.13-5.76	c-0.23-0.11-0.47-0.26-0.82-0.46c0.23-0.47,0.39-0.81,0.58-1.14c4.26-7.63,8.52-15.24,12.75-22.89c0.47-0.83,0.84-0.96,1.72-0.58	c34.31,15.01,73.3-5.18,80.86-41.87c0.37-1.76,0.6-3.56,0.8-5.34c0.09-0.8,0.32-1.17,1.2-1.14c8.89,0.16,17.79,0.3,26.69,0.41	C236.89,155.5,236.93,155.98,236.87,156.68 M235.83,144.54c-8.86,0.1-17.71,0.23-26.56,0.39c-0.78,0.01-1.09-0.23-1.18-1.04	c-2.89-25.32-20.83-45.47-45.49-50.92c-12.38-2.73-24.45-1.52-36.09,3.58c-0.98,0.42-1.39,0.26-1.89-0.64	c-4.12-7.48-8.3-14.92-12.46-22.38c-0.27-0.48-0.52-0.96-0.93-1.73c3.41-1.38,6.59-2.79,9.87-3.96c10.48-3.77,21.32-5.32,32.44-4.9	c6.36,0.26,12.61,1.23,18.78,2.82c0.76,0.2,1.07,0.58,1.22,1.32c2.62,11.97,11.28,20.27,23.25,22.27c4.45,0.74,8.82,0.3,13.09-1.13	c0.82-0.28,1.32-0.21,1.95,0.42c13.28,13.59,21.47,29.72,24.33,48.52c0.31,2.06,0.47,4.13,0.71,6.19	C236.98,144.17,236.76,144.53,235.83,144.54" class="st0"/></svg>