<svg xmlns="http://www.w3.org/2000/svg" xmlns:xlink="http://www.w3.org/1999/xlink" id="Réteg_1" x="0" y="0" version="1.1" viewBox="0 0 312 390" xml:space="preserve" style="enable-background:new 0 0 312 390"><style type="text/css">.st0{fill:#002647}.st1{fill:#72c800}</style><g><path d="M224.35,188.07c-29.72-44.85-40.63-88.5-45.04-113.07c-17.81,10.84-35.62,21.68-53.43,32.52 c5.09,21.37,14.75,53.13,33.59,87.84H104c-1.68-2.38-3.36-4.79-5.02-7.29C69.26,143.22,58.35,99.57,53.94,75 C36.13,85.84,18.32,96.68,0.51,107.52c6.57,27.56,20.66,72.39,52.36,118.56c31.39,45.72,66.57,73.12,88.94,87.92 c14.68-14.03,29.35-28.05,44.03-42.08c-10.2-6.16-24.33-15.64-39.74-29.36h44.2c28.03,35.97,57.34,58.52,76.88,71.44 c14.68-14.03,29.35-28.05,44.03-42.08c-10.2-6.16-24.33-15.64-39.74-29.36h39.74v-47.2h-81.83 C227.69,192.98,226.01,190.57,224.35,188.07" class="st0"/><rect width="47.38" height="47.38" x="264.71" y="75" class="st1"/></g></svg>