<svg xmlns="http://www.w3.org/2000/svg" xmlns:xlink="http://www.w3.org/1999/xlink" viewBox="0 0 116.95 89.74"><defs><style>.cls-1{fill:url(#Névtelen_színátmenet_21);}.cls-2{fill:#80ce00;}</style><linearGradient id="Névtelen_színátmenet_21" x1="-572.01" y1="2755.32" x2="-626.75" y2="2699.74" gradientTransform="matrix(1, 0, 0, -1, 658.44, 2769.84)" gradientUnits="userSpaceOnUse"><stop offset="0" stop-color="#80ce00"/><stop offset="0.07" stop-color="#7ec802"/><stop offset="0.43" stop-color="#76ad09"/><stop offset="0.75" stop-color="#729c0d"/><stop offset="0.99" stop-color="#70960f"/></linearGradient></defs><title>Eszköz 1</title><g id="Réteg_2" data-name="Réteg 2"><g id="Réteg_1" data-name="Réteg 1"><path class="cls-1" d="M84,42.45A113.59,113.59,0,0,1,67.12,0L47.06,12.21a135.11,135.11,0,0,0,12.61,33H38.85q-.95-1.34-1.89-2.73A113.59,113.59,0,0,1,20.06,0L0,12.24A133.81,133.81,0,0,0,19.62,56.72,122.78,122.78,0,0,0,53,89.72l16.61-15.8a100.33,100.33,0,0,1-14.92-11H71.29a122.07,122.07,0,0,0,28.86,26.82l16.47-15.82a100.33,100.33,0,0,1-14.92-11h14.92V45.18H85.91Q85,43.85,84,42.45Z"/><rect class="cls-2" x="99.17" width="17.78" height="17.78"/></g></g></svg>