<svg xmlns="http://www.w3.org/2000/svg" xmlns:xlink="http://www.w3.org/1999/xlink" viewBox="0 0 205 205"><defs><style>.cls-1{fill:url(#Névtelen_színátmenet_30)}.cls-2{fill:url(#Névtelen_színátmenet_31)}.cls-3{fill:#80ce00}</style><linearGradient id="Névtelen_színátmenet_30" x1="32.62" x2="206.82" y1="838.43" y2="950.79" gradientTransform="matrix(1, 0, 0, -1, 0, 986)" gradientUnits="userSpaceOnUse"><stop offset="0" stop-color="#d1d8d0"/><stop offset=".37" stop-color="#e9ece8"/><stop offset=".73" stop-color="#f9faf9"/><stop offset="1" stop-color="#fff"/></linearGradient><linearGradient id="Névtelen_színátmenet_31" x1="-523.14" x2="-631.64" y1="1192.44" y2="1077.48" gradientTransform="matrix(1, 0, 0, -1, 658.44, 1259.5)" gradientUnits="userSpaceOnUse"><stop offset="0" stop-color="#004178"/><stop offset=".38" stop-color="#00325e"/><stop offset=".73" stop-color="#00294d"/><stop offset=".99" stop-color="#002647"/></linearGradient></defs><title>Eszköz 1</title><g id="Réteg_2" data-name="Réteg 2"><g id="Réteg_1" data-name="Réteg 1"><rect width="205" height="205" class="cls-1" rx="49.07"/><path d="M125.59,108.19A131.32,131.32,0,0,1,106.05,59L82.82,73.17a156.38,156.38,0,0,0,14.6,38.18H73.27c-.73-1-1.46-2.08-2.18-3.16A131.56,131.56,0,0,1,51.51,59L28.28,73.17a154.68,154.68,0,0,0,22.77,51.54,142.32,142.32,0,0,0,38.66,38.22l19.14-18.29a116.57,116.57,0,0,1-17.27-12.77h19.21a141,141,0,0,0,33.42,31.06l19.14-18.29a116.13,116.13,0,0,1-17.3-12.77h17.27V111.35H127.77C127.05,110.32,126.31,109.27,125.59,108.19Z" class="cls-2"/><rect width="20.59" height="20.59" x="143.13" y="59.03" class="cls-3"/></g></g></svg>